<?xml version="1.0" standalone="no"?>
<!DOCTYPE svg PUBLIC "-//W3C//DTD SVG 20010904//EN"
 "http://www.w3.org/TR/2001/REC-SVG-20010904/DTD/svg10.dtd">
<svg version="1.0" xmlns="http://www.w3.org/2000/svg"
 width="197.000000pt" height="198.000000pt" viewBox="0 0 197.000000 198.000000"
 preserveAspectRatio="xMidYMid meet">

<g transform="translate(0.000000,198.000000) scale(0.100000,-0.100000)"
fill="#000000" stroke="none">
<path d="M990 1560 c-198 -38 -510 -137 -510 -163 0 -5 8 -6 18 -2 9 3 47 13
84 20 37 8 122 31 190 51 68 20 132 38 143 40 11 1 31 6 45 9 72 18 177 33
279 40 70 5 108 11 100 16 -24 15 -248 8 -349 -11z"/>
<path d="M905 1117 l-30 -26 28 -1 c27 0 43 18 35 41 -2 7 -15 2 -33 -14z"/>
<path d="M943 966 c-9 -5 -42 -6 -75 -3 -32 3 -71 1 -86 -4 -15 -5 -70 -20
-122 -34 -52 -14 -106 -32 -120 -39 -65 -34 -84 -46 -75 -46 5 0 -22 -21 -60
-47 -88 -58 -155 -113 -155 -125 0 -5 14 -7 32 -3 l33 6 -30 -26 -30 -25 50
17 c28 10 110 49 184 86 73 38 139 66 147 63 7 -3 17 1 21 8 5 7 16 15 25 19
30 11 9 -20 -28 -42 -36 -22 -36 -21 -39 -133 -2 -57 0 -66 14 -60 14 5 14 4
2 -11 -18 -23 -9 -80 21 -124 13 -19 50 -51 83 -71 54 -33 67 -37 130 -37 57
0 82 6 135 31 66 31 150 103 150 129 0 28 -18 23 -46 -14 -54 -72 -116 -101
-214 -101 -70 0 -125 25 -172 78 -21 23 -44 42 -52 42 -19 0 -29 17 -20 32 12
19 14 58 2 58 -6 0 -7 8 -3 18 3 9 10 38 15 64 5 26 21 66 35 88 14 22 22 40
19 40 -14 0 28 38 48 43 19 5 19 5 2 -14 -17 -19 -16 -19 14 -8 18 6 35 15 38
20 7 11 24 12 24 1 0 -5 -8 -17 -18 -28 -34 -36 -58 -144 -32 -144 6 0 10 7
10 15 0 8 5 15 10 15 6 0 10 -4 10 -10 0 -5 12 -10 26 -10 l27 0 -7 89 -7 88
33 14 c24 10 79 14 198 13 148 0 175 -3 264 -28 55 -15 113 -35 130 -44 48
-26 87 -64 77 -76 -4 -6 -18 -37 -31 -70 -13 -32 -41 -81 -63 -108 -30 -38
-36 -53 -27 -61 8 -9 18 -3 40 23 16 19 33 44 36 55 4 11 24 40 45 64 22 24
39 48 39 52 0 5 6 9 14 9 22 0 97 83 86 94 -16 16 -12 28 8 25 9 -2 27 2 40 9
12 7 22 10 22 7 0 -4 17 10 37 29 21 19 35 38 31 41 -3 3 -36 -11 -73 -31 -44
-24 -79 -37 -101 -36 -24 1 -34 -3 -34 -13 0 -18 -9 -19 -29 -2 -9 7 -32 18
-51 24 -76 25 -299 83 -363 94 -42 8 -63 16 -55 21 9 5 5 8 -12 9 -118 4 -164
3 -177 -5z"/>
<path d="M428 833 c7 -3 16 -2 19 1 4 3 -2 6 -13 5 -11 0 -14 -3 -6 -6z"/>
<path d="M1180 706 c0 -9 -4 -15 -9 -12 -5 4 -12 -22 -15 -56 -2 -35 -6 -74
-8 -88 -2 -14 2 -26 7 -28 10 -3 38 188 29 197 -2 2 -4 -3 -4 -13z"/>
<path d="M1088 649 c-10 -5 -18 -14 -18 -19 0 -17 15 -11 28 10 14 23 13 23
-10 9z"/>
</g>
</svg>
