<?xml version="1.0" standalone="no"?>
<!DOCTYPE svg PUBLIC "-//W3C//DTD SVG 20010904//EN"
 "http://www.w3.org/TR/2001/REC-SVG-20010904/DTD/svg10.dtd">
<svg version="1.0" xmlns="http://www.w3.org/2000/svg"
 width="512.000000pt" height="512.000000pt" viewBox="0 0 512.000000 512.000000"
 preserveAspectRatio="xMidYMid meet">

<g transform="translate(0.000000,512.000000) scale(0.100000,-0.100000)"
fill="#000000" stroke="none">
<path d="M2630 3344 c-63 -14 -129 -26 -147 -27 -17 -1 -29 -5 -27 -8 2 -3
-47 -21 -109 -38 -112 -33 -224 -78 -215 -87 7 -6 154 29 301 72 67 20 133 38
147 40 14 2 44 9 67 15 23 6 52 9 63 6 11 -3 18 -2 15 3 -6 9 53 17 195 26
136 9 104 23 -55 23 -91 0 -148 -6 -235 -25z"/>
<path d="M2565 2907 l-30 -26 28 -1 c27 0 43 18 35 41 -2 7 -15 2 -33 -14z"/>
<path d="M2607 2757 c-7 -4 -43 -6 -82 -5 -114 3 -329 -63 -394 -120 -13 -12
-47 -36 -75 -54 -66 -41 -146 -107 -146 -120 0 -5 14 -7 33 -3 l32 6 -28 -25
c-15 -15 -27 -26 -25 -26 14 0 186 79 263 120 52 29 100 48 106 44 7 -4 17 0
23 8 6 8 19 17 28 21 29 10 9 -22 -23 -38 -33 -18 -48 -62 -47 -147 1 -47 3
-55 17 -50 14 5 14 3 2 -11 -18 -23 -7 -82 25 -127 13 -20 49 -51 81 -70 51
-31 65 -35 128 -35 58 0 82 5 136 31 72 35 130 86 153 136 14 33 40 218 31
227 -3 2 -5 -6 -5 -18 0 -12 -4 -20 -9 -17 -5 4 -12 -24 -15 -61 -9 -107 -10
-111 -61 -164 -62 -65 -95 -81 -177 -87 -89 -6 -143 14 -200 76 -23 26 -48 46
-54 44 -7 -1 -15 5 -18 14 -4 12 -2 15 9 10 13 -5 14 -2 4 15 -6 11 -8 23 -5
26 3 4 2 11 -3 17 -12 14 4 85 34 151 12 28 22 53 21 56 -2 13 35 47 57 52 19
5 17 2 -8 -19 l-30 -25 40 17 c22 9 46 21 53 26 25 21 23 -1 -3 -41 -29 -43
-46 -131 -26 -131 6 0 11 7 11 15 0 8 5 15 10 15 6 0 10 -4 10 -10 0 -5 12
-10 26 -10 l27 0 -7 89 -7 88 33 14 c24 10 79 14 198 14 150 -1 174 -3 265
-29 111 -31 144 -46 185 -83 21 -18 26 -30 20 -42 -4 -9 -20 -43 -35 -76 -15
-33 -43 -79 -62 -103 -27 -34 -33 -46 -24 -55 9 -9 19 -4 41 23 16 19 33 44
36 55 4 11 24 40 45 64 22 24 39 48 39 52 0 5 6 9 14 9 22 0 97 83 86 94 -17
17 -11 23 35 35 44 11 116 63 104 76 -4 3 -36 -10 -71 -30 -41 -22 -78 -35
-102 -35 -20 0 -35 -4 -31 -9 10 -17 -16 -23 -33 -9 -27 22 -278 95 -415 119
-42 8 -63 16 -55 21 9 5 5 8 -12 9 -115 4 -164 3 -173 -4z"/>
<path d="M2748 2439 c-19 -11 -24 -29 -8 -29 5 0 14 9 20 20 12 23 12 23 -12
9z"/>
</g>
</svg>
