<?xml version="1.0" standalone="no"?>
<!DOCTYPE svg PUBLIC "-//W3C//DTD SVG 20010904//EN"
 "http://www.w3.org/TR/2001/REC-SVG-20010904/DTD/svg10.dtd">
<svg version="1.0" xmlns="http://www.w3.org/2000/svg"
 width="224.000000pt" height="224.000000pt" viewBox="0 0 224.000000 224.000000"
 preserveAspectRatio="xMidYMid meet">

<g transform="translate(0.000000,224.000000) scale(0.100000,-0.100000)"
fill="#000000" stroke="none">
<path d="M0 1120 l0 -1120 1120 0 1120 0 0 1120 0 1120 -1120 0 -1120 0 0
-1120z m2180 0 l0 -1060 -1060 0 -1060 0 0 1060 0 1060 1060 0 1060 0 0 -1060z"/>
<path d="M179 2103 c-52 -32 -59 -58 -59 -223 0 -233 7 -240 240 -240 233 0
240 7 240 240 0 233 -7 240 -242 240 -124 0 -158 -4 -179 -17z m326 -78 c24
-23 25 -30 25 -145 0 -115 -1 -122 -25 -145 -23 -24 -30 -25 -145 -25 -115 0
-122 1 -145 25 -24 23 -25 30 -25 145 0 115 1 122 25 145 23 24 30 25 145 25
115 0 122 -1 145 -25z"/>
<path d="M272 1968 c-16 -16 -16 -160 0 -176 7 -7 42 -12 88 -12 46 0 81 5 88
12 16 16 16 160 0 176 -7 7 -42 12 -88 12 -46 0 -81 -5 -88 -12z"/>
<path d="M820 2106 c-27 -33 18 -72 48 -42 13 13 14 20 6 34 -15 23 -38 26
-54 8z"/>
<path d="M957 2113 c-25 -24 12 -74 41 -56 27 16 44 6 29 -18 -9 -14 -9 -23 0
-38 16 -26 -2 -44 -28 -28 -15 9 -24 9 -39 0 -24 -16 -35 -1 -18 26 9 15 9 23
-1 35 -30 36 -78 5 -53 -34 8 -14 8 -21 -3 -30 -7 -6 -16 -7 -19 -2 -3 5 -44
9 -91 9 -93 0 -119 -12 -98 -46 7 -11 8 -23 2 -34 -6 -10 -6 -23 0 -35 6 -11
6 -24 0 -35 -6 -11 -6 -23 0 -35 7 -13 7 -22 -1 -30 -8 -8 -9 -18 -1 -36 9
-17 8 -27 0 -35 -9 -9 -8 -16 1 -31 9 -16 10 -24 0 -39 -9 -15 -9 -23 1 -35 8
-9 19 -16 26 -16 22 0 40 30 28 48 -7 12 -7 22 1 35 8 12 8 22 0 35 -8 12 -8
22 0 35 8 12 8 22 -1 36 -6 10 -10 21 -8 23 3 3 36 3 74 1 72 -3 88 6 74 43
-4 12 -14 15 -39 11 -39 -7 -47 -1 -31 24 9 15 9 23 0 39 -15 23 -1 35 24 21
11 -6 24 -6 35 0 11 6 25 6 36 0 11 -6 24 -6 35 1 12 6 22 6 32 -2 10 -9 19
-9 35 0 16 9 25 9 33 1 15 -15 23 -14 42 5 14 15 14 19 1 39 -18 27 -4 39 27
23 10 -5 24 -5 35 0 30 16 44 4 26 -23 -13 -20 -13 -24 0 -38 20 -20 1 -40
-24 -25 -24 15 -50 3 -50 -22 0 -25 26 -37 49 -23 12 7 20 7 29 -3 7 -8 8 -15
2 -19 -16 -10 -12 -45 6 -52 9 -3 25 -1 35 6 13 7 19 8 19 0 0 -5 12 -9 28 -7
21 2 27 8 27 28 0 20 -6 26 -27 28 -17 2 -28 -1 -28 -9 0 -9 -3 -9 -15 1 -11
9 -12 16 -2 31 9 14 9 24 1 37 -8 12 -8 22 0 35 8 12 8 22 -1 37 -16 24 -1 35
27 20 16 -8 25 -8 35 0 10 9 19 9 35 0 16 -9 25 -8 36 1 33 27 2 75 -35 52
-11 -7 -21 -7 -33 1 -13 8 -23 8 -37 -1 -15 -10 -22 -9 -31 2 -9 11 -9 15 -1
15 6 0 11 11 11 25 0 29 -25 43 -49 28 -11 -7 -22 -7 -34 1 -12 8 -22 8 -35 0
-12 -8 -22 -8 -35 0 -12 8 -22 8 -37 -1 -12 -8 -21 -9 -25 -3 -7 11 -38 13
-48 3z m138 -73 c-5 -8 -11 -8 -17 -2 -6 6 -7 16 -3 22 5 8 11 8 17 2 6 -6 7
-16 3 -22z m70 0 c-5 -8 -11 -8 -17 -2 -6 6 -7 16 -3 22 5 8 11 8 17 2 6 -6 7
-16 3 -22z m-410 -119 c7 -12 -12 -24 -25 -16 -11 7 -4 25 10 25 5 0 11 -4 15
-9z m0 -70 c7 -12 -12 -24 -25 -16 -11 7 -4 25 10 25 5 0 11 -4 15 -9z"/>
<path d="M1372 2108 c-16 -16 -15 -33 4 -49 13 -10 19 -10 36 0 27 17 44 0 27
-27 -10 -16 -10 -24 -1 -35 16 -19 5 -27 -27 -21 -35 7 -60 -19 -44 -45 6 -10
8 -23 3 -30 -5 -9 -10 -10 -14 -2 -7 10 -56 16 -56 7 0 -2 -3 -11 -6 -19 -9
-24 24 -49 47 -37 12 7 25 7 36 1 36 -20 71 27 42 56 -15 15 6 27 28 14 23
-12 53 4 53 29 0 10 -4 22 -10 25 -6 4 -5 13 2 25 9 14 9 22 -2 35 -19 23 1
41 28 24 17 -10 23 -10 36 0 9 8 16 19 16 26 0 7 -7 18 -16 26 -12 10 -20 10
-35 1 -15 -9 -23 -9 -38 0 -15 9 -23 9 -36 -2 -12 -10 -19 -10 -27 -2 -15 15
-31 15 -46 0z"/>
<path d="M1698 2104 c-50 -27 -58 -58 -58 -224 0 -233 7 -240 240 -240 233 0
240 7 240 240 0 231 -9 240 -242 240 -116 -1 -160 -4 -180 -16z m327 -79 c24
-23 25 -30 25 -145 0 -115 -1 -122 -25 -145 -23 -24 -30 -25 -145 -25 -115 0
-122 1 -145 25 -24 23 -25 30 -25 145 0 115 1 122 25 145 23 24 30 25 145 25
115 0 122 -1 145 -25z"/>
<path d="M1792 1968 c-7 -7 -12 -42 -12 -88 0 -46 5 -81 12 -88 7 -7 42 -12
88 -12 46 0 81 5 88 12 7 7 12 42 12 88 0 46 -5 81 -12 88 -7 7 -42 12 -88 12
-46 0 -81 -5 -88 -12z"/>
<path d="M953 1824 c-3 -9 -2 -24 4 -33 7 -11 7 -21 -1 -33 -8 -13 -8 -23 0
-36 8 -12 8 -22 1 -33 -23 -37 25 -68 52 -35 9 11 10 20 1 36 -9 16 -9 25 0
35 8 10 8 20 2 32 -6 11 -7 24 -1 35 5 9 6 24 3 32 -8 21 -53 21 -61 0z"/>
<path d="M1434 1826 c-11 -28 4 -48 33 -44 22 2 28 8 28 28 0 20 -6 26 -28 28
-18 2 -29 -2 -33 -12z"/>
<path d="M1305 1764 c-18 -18 -16 -33 7 -47 21 -14 48 -2 48 22 0 30 -34 45
-55 25z"/>
<path d="M1517 1769 c-18 -11 -23 -44 -7 -54 6 -4 5 -13 -3 -25 -9 -16 -9 -24
0 -40 16 -24 -1 -37 -23 -19 -12 10 -20 10 -35 1 -27 -17 -42 -6 -26 18 8 15
9 25 1 37 -15 23 -27 26 -49 9 -18 -13 -18 -17 -7 -37 18 -28 2 -45 -26 -28
-17 10 -23 10 -37 -1 -11 -9 -19 -10 -26 -3 -8 8 -7 13 0 17 15 10 14 41 -3
55 -27 23 -68 -17 -45 -45 7 -9 7 -19 -1 -34 -9 -16 -9 -25 0 -35 8 -9 8 -20
2 -32 -7 -12 -7 -25 -1 -36 11 -18 44 -23 54 -7 4 6 13 5 24 -2 10 -6 26 -8
35 -5 18 7 22 42 6 52 -8 5 -7 11 0 20 9 11 16 12 31 2 15 -9 23 -9 38 0 14 9
21 9 30 0 9 -9 17 -8 32 2 28 17 45 1 28 -27 -10 -16 -10 -23 0 -35 10 -12 10
-19 0 -35 -10 -16 -10 -23 0 -36 8 -9 19 -16 26 -16 7 0 18 7 26 16 10 13 10
20 0 36 -10 16 -10 23 0 35 10 11 10 19 1 34 -9 15 -9 23 0 38 9 15 9 23 -1
35 -11 13 -11 19 0 32 9 12 10 20 2 33 -7 11 -8 23 -2 32 14 22 11 37 -9 48
-11 6 -24 6 -35 0z m-214 -210 c-17 -17 -37 -1 -22 17 8 10 15 12 23 4 7 -7 7
-13 -1 -21z"/>
<path d="M822 1698 c-14 -14 -16 -45 -2 -53 6 -4 5 -13 -2 -24 -6 -10 -8 -26
-5 -35 7 -18 42 -22 52 -6 5 8 11 7 20 0 11 -9 11 -16 3 -30 -6 -9 -8 -25 -5
-34 7 -18 42 -22 52 -6 12 19 24 0 19 -28 -7 -36 19 -61 46 -44 24 15 30 7 23
-34 -4 -24 -2 -34 8 -34 10 0 10 -3 1 -12 -17 -17 -15 -55 4 -62 21 -8 20 -8
38 10 12 12 13 20 6 35 -15 27 -4 42 21 29 13 -7 25 -7 38 0 24 12 36 -2 22
-28 -6 -11 -6 -24 0 -35 14 -24 2 -39 -20 -25 -26 16 -51 3 -51 -26 0 -27 23
-40 48 -27 30 15 43 3 26 -24 -13 -20 -13 -24 2 -39 14 -15 19 -15 38 -3 18
12 23 12 34 1 17 -19 52 -1 52 27 0 24 -27 36 -50 21 -25 -15 -43 4 -27 29 9
14 9 24 1 37 -8 12 -8 22 0 35 8 12 8 22 -1 36 -10 15 -9 20 1 24 8 3 19 0 25
-6 9 -9 17 -8 32 2 27 16 49 0 30 -22 -23 -28 17 -70 44 -47 10 8 19 8 33 -1
16 -10 23 -10 36 0 13 11 19 11 32 0 12 -10 20 -10 35 -1 15 9 23 9 38 0 15
-9 23 -9 36 2 11 9 19 10 26 3 8 -8 7 -13 0 -17 -16 -10 -14 -41 3 -55 11 -9
20 -10 36 -1 15 8 25 8 34 1 28 -24 68 18 45 46 -17 20 4 41 25 24 10 -9 20
-9 33 -3 12 7 25 7 36 1 11 -7 23 -7 34 0 11 6 24 6 35 0 9 -5 24 -6 32 -3 18
7 22 49 5 60 -8 4 -7 9 2 14 7 5 20 3 30 -3 13 -8 21 -7 33 2 36 30 5 77 -35
53 -10 -6 -20 -8 -21 -4 -7 14 -2 97 5 94 4 -1 14 -5 22 -8 39 -15 62 29 29
57 -12 9 -20 10 -33 2 -11 -7 -23 -8 -34 -2 -11 6 -24 6 -35 0 -13 -7 -22 -7
-30 1 -8 8 -18 9 -36 1 -17 -8 -27 -8 -35 0 -7 7 -17 7 -33 0 -16 -7 -28 -7
-40 0 -33 21 -65 -32 -36 -61 9 -9 9 -12 0 -12 -16 0 -16 -32 0 -48 18 -18 36
-15 48 9 8 15 8 24 0 34 -18 21 -3 37 20 22 16 -9 24 -9 39 0 25 16 31 8 24
-33 -6 -39 16 -56 48 -36 22 14 34 0 20 -26 -6 -11 -6 -24 0 -35 14 -25 2 -39
-21 -24 -16 9 -24 9 -40 0 -23 -15 -35 -1 -21 25 13 25 -8 56 -35 51 -21 -5
-34 -59 -13 -59 9 0 9 -3 -1 -15 -9 -11 -16 -12 -31 -2 -14 9 -24 9 -37 1 -12
-8 -22 -8 -35 0 -12 8 -22 8 -35 0 -12 -8 -22 -8 -35 0 -12 8 -22 8 -35 0 -12
-8 -22 -8 -34 0 -13 8 -21 7 -29 -1 -9 -9 -16 -9 -30 0 -15 9 -23 9 -38 0 -25
-16 -44 2 -29 27 6 10 8 25 5 34 -7 17 -42 22 -52 6 -4 -6 -13 -5 -25 3 -16 9
-24 9 -39 0 -25 -16 -31 -8 -24 33 4 26 2 35 -12 40 -10 4 -25 3 -34 -3 -11
-7 -21 -7 -33 1 -13 8 -23 8 -36 0 -12 -8 -22 -8 -35 0 -12 8 -22 8 -37 -1
-23 -15 -35 -1 -21 25 7 14 6 24 -4 38 -12 17 -17 17 -36 6 -29 -18 -45 -2
-28 27 12 18 11 23 -4 38 -15 15 -20 16 -38 4 -29 -17 -45 -1 -27 28 11 19 11
24 -6 37 -24 17 -29 17 -44 2z m1033 -208 c-5 -8 -11 -8 -17 -2 -6 6 -7 16 -3
22 5 8 11 8 17 2 6 -6 7 -16 3 -22z m-760 -70 c-5 -8 -11 -8 -17 -2 -6 6 -7
16 -3 22 5 8 11 8 17 2 6 -6 7 -16 3 -22z m70 0 c-5 -8 -11 -8 -17 -2 -6 6 -7
16 -3 22 5 8 11 8 17 2 6 -6 7 -16 3 -22z m489 -119 c3 -5 -1 -14 -8 -20 -16
-13 -32 2 -21 19 8 12 22 13 29 1z"/>
<path d="M1103 1703 c-16 -6 -17 -45 -1 -61 9 -9 9 -12 -1 -12 -8 0 -11 -10
-9 -27 2 -22 8 -28 28 -28 20 0 26 6 28 28 2 17 -1 27 -9 27 -10 0 -10 3 -1
12 17 17 15 55 -4 62 -9 3 -16 6 -17 5 -1 0 -8 -3 -14 -6z"/>
<path d="M130 1556 c-27 -33 18 -72 48 -42 13 13 14 20 6 34 -15 23 -38 26
-54 8z"/>
<path d="M270 1555 c-7 -8 -10 -25 -6 -38 7 -31 -1 -39 -25 -24 -15 9 -22 8
-36 -6 -14 -14 -15 -21 -6 -36 16 -26 -2 -44 -28 -28 -26 16 -59 -15 -43 -41
8 -11 8 -22 1 -33 -23 -36 21 -75 51 -45 14 14 15 19 3 37 -17 29 -1 45 28 28
18 -12 23 -11 38 4 15 15 16 21 5 38 -17 27 -7 42 19 28 11 -6 27 -8 35 -5 24
9 28 3 29 -42 1 -43 -8 -62 -20 -42 -10 16 -45 12 -52 -6 -3 -9 -1 -25 5 -35
7 -11 8 -20 2 -24 -15 -9 -12 -41 4 -54 11 -9 20 -10 36 -1 15 8 25 8 34 1 8
-6 21 -9 30 -5 18 7 22 49 5 60 -18 11 12 24 32 13 31 -16 52 0 46 37 -6 37 0
49 20 32 10 -8 20 -8 37 0 17 8 27 7 35 -1 9 -9 16 -8 31 1 16 9 24 10 39 0
15 -9 23 -9 34 1 12 10 19 10 35 0 37 -23 70 24 36 52 -13 11 -19 10 -37 0
-15 -10 -22 -11 -25 -2 -5 14 -39 15 -47 1 -4 -6 -13 -5 -25 3 -15 9 -25 9
-38 1 -12 -8 -22 -8 -33 -1 -9 6 -23 8 -30 5 -8 -3 -18 -7 -24 -9 -9 -4 -15
76 -7 93 1 4 12 2 22 -5 15 -9 25 -9 38 -1 12 8 22 8 33 1 38 -24 68 25 33 54
-11 9 -20 10 -32 2 -12 -7 -24 -7 -40 0 -16 7 -26 7 -33 0 -8 -8 -18 -8 -35 0
-18 8 -28 7 -36 -1 -8 -8 -17 -8 -30 -1 -12 6 -24 6 -37 -1 -13 -7 -22 -7 -26
0 -9 15 -31 12 -45 -5z m65 -65 c-5 -8 -11 -8 -17 -2 -6 6 -7 16 -3 22 5 8 11
8 17 2 6 -6 7 -16 3 -22z m70 0 c-5 -8 -11 -8 -17 -2 -6 6 -7 16 -3 22 5 8 11
8 17 2 6 -6 7 -16 3 -22z m0 -70 c-5 -8 -11 -8 -17 -2 -6 6 -7 16 -3 22 5 8
11 8 17 2 6 -6 7 -16 3 -22z m0 -70 c-5 -8 -11 -8 -17 -2 -6 6 -7 16 -3 22 5
8 11 8 17 2 6 -6 7 -16 3 -22z m-66 -67 c-8 -9 -16 -10 -22 -4 -13 13 0 31 19
24 11 -4 12 -8 3 -20z"/>
<path d="M820 1486 c-27 -33 18 -72 48 -42 13 13 14 20 6 34 -15 23 -38 26
-54 8z"/>
<path d="M1990 1486 c-27 -33 18 -72 48 -42 13 13 14 20 6 34 -15 23 -38 26
-54 8z"/>
<path d="M750 1346 c-27 -33 18 -72 48 -42 13 13 14 20 6 34 -15 23 -38 26
-54 8z"/>
<path d="M2061 1346 c-15 -18 -8 -44 14 -52 21 -9 47 15 43 40 -4 26 -40 33
-57 12z"/>
<path d="M470 1270 c-8 -14 -7 -22 4 -32 11 -11 11 -16 -1 -34 -12 -19 -12
-24 1 -36 12 -11 12 -15 0 -29 -15 -16 -10 -49 7 -49 6 0 4 -6 -3 -14 -11 -11
-16 -11 -32 0 -23 16 -46 2 -46 -28 0 -23 27 -35 50 -20 25 15 44 -5 24 -25
-10 -11 -11 -19 -4 -34 11 -20 45 -26 55 -9 4 6 13 5 24 -2 24 -15 51 -4 51
20 0 30 -24 46 -50 32 -28 -15 -43 -4 -27 20 9 16 9 24 0 39 -10 15 -9 22 2
31 12 10 15 10 15 1 0 -8 11 -11 28 -9 21 2 27 8 27 28 0 20 -6 26 -27 28 -17
2 -28 -1 -28 -9 0 -9 -3 -9 -15 1 -11 9 -12 16 -2 31 9 15 9 23 0 39 -16 24
-1 35 27 20 26 -14 50 2 50 32 0 24 -27 35 -51 20 -11 -7 -20 -8 -24 -2 -10
17 -44 11 -55 -10z"/>
<path d="M813 1274 c-3 -9 -1 -25 5 -34 15 -24 7 -29 -34 -23 -26 4 -35 2 -40
-12 -4 -10 -3 -25 3 -34 7 -11 7 -21 0 -32 -15 -24 -1 -49 28 -49 30 0 43 25
27 51 -15 23 1 34 27 19 15 -7 23 -6 35 6 19 18 19 20 6 44 -12 23 4 37 25 20
10 -9 19 -9 35 0 24 13 52 -1 31 -14 -18 -11 -13 -44 8 -56 15 -7 23 -6 35 6
19 18 20 26 5 41 -8 8 -8 17 1 33 9 16 9 25 -1 36 -13 16 -45 19 -54 4 -4 -6
-13 -5 -25 3 -16 9 -24 9 -40 0 -12 -8 -21 -9 -25 -3 -10 16 -45 11 -52 -6z"/>
<path d="M123 1204 c-3 -9 -2 -24 4 -33 7 -11 7 -21 0 -32 -21 -33 -2 -47 62
-47 38 0 61 4 61 11 0 7 4 7 12 -1 29 -29 76 -4 62 33 -7 18 -45 20 -62 3 -9
-9 -12 -9 -12 1 0 10 -10 12 -34 8 -40 -6 -49 -1 -36 24 6 9 7 25 4 33 -8 21
-53 21 -61 0z"/>
<path d="M606 1205 c-8 -22 -8 -21 10 -39 21 -22 56 -3 52 27 -4 28 -52 37
-62 12z"/>
<path d="M1436 1212 c-3 -3 -6 -13 -6 -23 0 -24 30 -40 52 -28 26 14 40 2 25
-21 -9 -16 -9 -24 0 -40 15 -23 1 -35 -24 -21 -11 6 -24 6 -35 0 -26 -14 -40
-2 -26 20 22 35 4 49 -61 49 -64 0 -80 -13 -61 -48 13 -24 -3 -35 -29 -20 -15
7 -23 6 -36 -6 -29 -29 8 -69 44 -47 24 15 34 -1 19 -30 -12 -22 6 -47 34 -47
24 0 35 27 20 50 -9 14 -8 21 3 30 11 9 15 9 15 1 0 -7 23 -10 70 -8 39 2 72
2 75 -1 2 -2 -1 -12 -7 -22 -25 -39 23 -70 53 -34 9 11 10 20 2 32 -7 12 -7
24 0 40 7 16 7 26 -1 34 -8 8 -7 16 1 29 9 15 9 23 0 38 -8 13 -8 22 -1 29 5
5 7 19 4 30 -6 17 -15 20 -66 20 -32 0 -61 -3 -64 -6z m-61 -121 c7 -12 -12
-24 -25 -16 -11 7 -4 25 10 25 5 0 11 -4 15 -9z"/>
<path d="M1717 1213 c-14 -13 -7 -43 12 -53 28 -14 55 13 41 41 -10 19 -40 26
-53 12z"/>
<path d="M1857 1213 c-11 -10 -8 -53 3 -53 6 0 6 -7 -1 -19 -24 -37 18 -70 49
-39 9 9 12 9 12 0 0 -15 46 -16 56 -1 11 19 24 -13 13 -34 -19 -35 30 -64 59
-35 9 9 12 9 12 0 0 -18 50 -14 57 4 3 9 2 24 -4 33 -7 11 -7 21 0 32 6 9 7
24 3 34 -5 14 -14 16 -40 12 -41 -6 -49 -1 -34 23 15 23 4 50 -20 50 -29 0
-46 -25 -33 -47 11 -21 -2 -53 -13 -34 -9 14 -56 14 -56 0 0 -8 -4 -8 -15 1
-11 9 -12 16 -3 30 6 9 8 25 5 34 -6 16 -38 22 -50 9z m208 -122 c7 -12 -12
-24 -25 -16 -11 7 -4 25 10 25 5 0 11 -4 15 -9z"/>
<path d="M883 1134 c-3 -9 -1 -25 5 -35 7 -11 8 -20 2 -24 -16 -10 -11 -45 6
-52 9 -3 24 -1 34 5 25 15 43 -4 27 -29 -9 -15 -9 -24 0 -39 16 -24 -1 -37
-23 -19 -13 10 -20 10 -36 0 -16 -10 -23 -10 -35 0 -11 10 -19 10 -34 1 -28
-18 -40 -6 -27 24 10 22 9 28 -6 40 -14 10 -24 10 -38 3 -22 -12 -49 3 -29 15
17 11 13 44 -8 55 -13 7 -24 6 -37 -3 -15 -12 -16 -18 -7 -39 9 -18 9 -27 0
-36 -9 -9 -8 -17 1 -32 11 -16 11 -24 1 -36 -10 -12 -10 -19 0 -35 17 -27 0
-44 -27 -27 -16 10 -23 10 -35 0 -12 -10 -20 -10 -36 1 -15 9 -23 10 -32 1 -8
-8 -18 -9 -35 -1 -17 8 -27 8 -37 0 -20 -17 -26 -5 -20 32 4 25 1 35 -11 39
-31 12 -49 -4 -43 -39 6 -38 1 -47 -24 -34 -31 17 -52 1 -46 -36 6 -37 0 -49
-19 -33 -21 17 -54 1 -54 -27 0 -29 25 -42 50 -26 24 15 29 7 23 -33 -4 -28
-2 -34 17 -40 12 -4 27 -2 33 4 6 6 16 7 28 1 26 -14 49 -2 49 26 0 29 -25 42
-51 26 -22 -14 -25 -9 -24 43 1 43 5 48 31 38 9 -3 25 -1 35 5 23 14 34 0 20
-26 -13 -25 8 -56 35 -50 14 3 19 12 19 38 0 37 5 43 31 33 9 -3 25 -1 35 5
11 7 20 8 24 2 9 -14 42 -12 48 3 3 9 8 9 17 1 9 -9 9 -16 -1 -32 -10 -16 -10
-23 0 -35 10 -12 10 -19 0 -35 -10 -16 -10 -23 0 -35 10 -12 10 -20 -1 -36
-11 -18 -10 -23 5 -38 14 -15 21 -16 37 -5 16 10 24 10 40 0 16 -11 23 -10 37
5 15 14 16 21 5 37 -10 16 -10 24 0 40 11 16 10 23 -5 37 -15 15 -20 16 -38 4
-28 -17 -45 -1 -28 27 10 16 10 23 0 35 -10 12 -10 19 0 35 10 16 10 24 1 34
-17 22 4 40 29 25 14 -9 21 -9 30 0 9 9 16 9 30 0 15 -9 23 -9 38 0 25 16 44
-2 29 -27 -25 -39 23 -70 53 -34 10 12 10 20 1 35 -17 27 -6 42 18 26 16 -9
24 -9 39 0 15 10 22 9 31 -2 8 -10 9 -15 2 -15 -7 0 -10 -24 -9 -62 2 -53 5
-63 21 -66 27 -6 48 25 35 50 -14 26 -2 40 21 25 16 -9 24 -9 40 0 23 15 35 1
21 -24 -6 -11 -6 -24 0 -35 14 -26 2 -40 -20 -26 -26 16 -51 3 -51 -26 0 -28
23 -40 49 -26 12 6 22 5 28 -1 6 -6 20 -8 31 -5 18 6 20 16 20 101 0 61 -4 95
-11 95 -7 0 -7 4 1 12 29 29 0 78 -35 60 -12 -7 -25 -7 -36 -1 -11 6 -23 6
-35 0 -11 -6 -24 -6 -35 1 -13 7 -23 6 -33 -3 -21 -17 -42 4 -25 25 10 11 10
20 1 36 -9 16 -9 25 -1 33 15 15 14 23 -5 41 -12 12 -20 13 -35 6 -26 -15 -42
-4 -29 20 5 10 7 26 4 34 -8 21 -53 21 -61 0z m-128 -183 c7 -12 -12 -24 -25
-16 -11 7 -4 25 10 25 5 0 11 -4 15 -9z m340 -81 c-5 -8 -11 -8 -17 -2 -6 6
-7 16 -3 22 5 8 11 8 17 2 6 -6 7 -16 3 -22z m70 0 c-5 -8 -11 -8 -17 -2 -6 6
-7 16 -3 22 5 8 11 8 17 2 6 -6 7 -16 3 -22z m-409 -191 c3 -6 1 -16 -5 -22
-9 -9 -14 -8 -21 3 -9 15 -4 30 10 30 5 0 12 -5 16 -11z"/>
<path d="M1655 1076 c-22 -16 -15 -50 11 -54 25 -4 47 19 38 41 -8 22 -29 28
-49 13z"/>
<path d="M1797 1079 c-19 -11 -23 -44 -6 -55 19 -11 -13 -24 -34 -13 -32 18
-68 -37 -37 -56 6 -4 5 -13 -2 -24 -15 -24 -4 -51 21 -51 26 0 43 30 30 53
-14 24 -2 39 20 25 10 -6 26 -8 35 -5 18 7 22 57 4 57 -9 0 -9 3 0 12 28 28 2
75 -31 57z"/>
<path d="M1094 1066 c-10 -26 4 -48 28 -44 17 2 23 10 23 28 0 18 -6 26 -23
28 -13 2 -25 -3 -28 -12z"/>
<path d="M132 938 c-14 -14 -16 -45 -2 -53 6 -4 5 -13 -2 -25 -9 -14 -9 -22 1
-34 11 -13 11 -19 0 -32 -10 -12 -10 -20 -1 -35 9 -15 9 -23 0 -38 -9 -15 -9
-23 1 -35 8 -9 19 -16 26 -16 7 0 18 7 26 16 10 12 10 20 1 35 -9 15 -9 23 0
38 9 15 9 23 -1 35 -11 13 -11 19 0 32 10 12 10 20 1 35 -9 15 -9 23 0 38 21
34 -22 67 -50 39z"/>
<path d="M1580 935 c-18 -22 -8 -50 19 -50 32 0 49 28 32 49 -17 20 -35 20
-51 1z"/>
<path d="M1856 934 c-11 -10 -13 -21 -7 -32 5 -9 6 -32 4 -49 -6 -37 17 -54
46 -36 11 7 21 7 32 0 38 -24 68 25 33 54 -12 9 -20 10 -33 2 -10 -6 -23 -8
-30 -3 -9 5 -10 10 -2 14 17 11 13 53 -5 60 -21 8 -20 8 -38 -10z"/>
<path d="M1995 934 c-29 -30 8 -69 45 -47 24 16 35 1 18 -26 -9 -15 -9 -23 1
-35 8 -9 19 -16 26 -16 24 0 40 30 27 50 -7 12 -8 21 -2 25 15 9 12 41 -6 56
-13 10 -19 10 -36 0 -15 -9 -23 -10 -31 -2 -15 15 -23 14 -42 -5z"/>
<path d="M1300 865 c-25 -30 15 -69 49 -48 11 7 21 7 33 0 12 -8 21 -7 32 2
20 17 20 35 0 52 -13 10 -19 10 -36 0 -15 -9 -23 -10 -31 -2 -15 15 -32 14
-47 -4z"/>
<path d="M820 796 c-27 -33 18 -72 48 -42 13 13 14 20 6 34 -15 23 -38 26 -54
8z"/>
<path d="M1442 798 c-16 -16 -15 -33 4 -49 13 -10 19 -10 36 0 28 17 44 0 27
-28 -10 -15 -11 -23 -2 -32 9 -9 9 -16 0 -30 -9 -15 -9 -23 0 -38 15 -24 7
-31 -26 -25 -34 7 -60 -19 -44 -44 7 -12 7 -22 -1 -35 -8 -12 -8 -22 1 -37 7
-10 9 -21 5 -22 -11 -5 -97 -3 -95 2 1 3 5 13 8 23 4 9 5 24 1 32 -6 17 -42
20 -51 5 -5 -8 -11 -7 -20 0 -11 9 -11 16 -3 30 6 9 8 25 5 34 -7 17 -42 22
-52 6 -4 -6 -13 -5 -24 2 -10 6 -26 8 -35 5 -18 -7 -22 -57 -5 -57 8 0 8 -4
-1 -15 -9 -11 -16 -12 -30 -3 -37 24 -70 -23 -36 -51 14 -12 46 -5 46 10 0 6
6 4 14 -3 9 -9 10 -17 3 -29 -14 -23 -2 -49 23 -49 25 0 37 26 22 50 -15 25 5
44 25 24 11 -10 19 -11 34 -4 26 15 42 4 29 -20 -17 -32 -1 -53 36 -47 38 6
47 1 34 -24 -14 -26 -2 -49 26 -49 29 0 42 25 26 51 -14 22 -9 25 43 24 39 -1
47 -7 38 -32 -9 -23 6 -43 31 -43 28 0 44 33 27 54 -16 19 -4 25 35 19 24 -4
34 -2 34 8 0 10 3 10 12 1 15 -15 58 -16 58 -1 0 8 4 8 15 -1 11 -9 12 -16 2
-31 -9 -14 -9 -24 -1 -37 8 -12 8 -22 1 -33 -14 -22 -2 -49 22 -49 28 0 46 35
27 52 -11 11 -11 16 1 34 12 19 12 24 -1 37 -20 20 -1 40 24 25 10 -6 25 -8
34 -5 17 7 22 42 6 52 -6 4 -5 13 3 25 9 16 9 24 0 39 -15 24 2 34 30 19 12
-6 23 -5 33 3 20 17 44 -5 26 -23 -16 -16 -15 -23 4 -42 8 -9 11 -16 6 -16
-13 0 -23 -27 -16 -45 7 -18 45 -20 62 -3 8 8 12 8 12 1 0 -7 23 -11 61 -11
64 0 83 14 62 47 -7 11 -7 21 0 32 15 24 1 49 -28 49 -14 0 -25 -5 -25 -10 0
-6 -8 -5 -20 2 -15 10 -24 10 -39 1 -25 -16 -44 2 -29 27 6 10 8 25 5 34 -7
17 -42 22 -52 6 -4 -6 -13 -5 -25 3 -16 9 -24 9 -39 0 -15 -10 -22 -9 -31 2
-10 12 -10 15 0 15 9 0 11 10 7 34 -6 39 0 51 20 34 10 -8 20 -8 37 0 17 8 27
7 35 -1 9 -9 17 -8 32 2 27 16 49 0 30 -22 -23 -29 17 -70 45 -46 16 13 18 45
4 54 -6 4 -5 13 2 24 6 10 8 26 5 35 -7 17 -42 22 -52 6 -4 -6 -13 -5 -25 3
-15 9 -25 9 -38 1 -12 -8 -22 -8 -35 0 -12 8 -22 8 -36 -1 -25 -16 -31 -8 -24
33 4 26 2 35 -12 40 -10 4 -25 3 -34 -3 -11 -7 -21 -7 -33 1 -13 8 -23 8 -37
-1 -13 -8 -21 -9 -29 -1 -8 8 -18 8 -36 1 -17 -9 -27 -8 -35 0 -9 9 -16 8 -31
-1 -16 -9 -24 -10 -39 0 -15 9 -23 9 -36 -2 -12 -10 -19 -10 -27 -2 -15 15
-31 15 -46 0z m144 -49 c8 -14 -18 -31 -30 -19 -9 9 0 30 14 30 5 0 12 -5 16
-11z m59 -19 c-5 -8 -11 -8 -17 -2 -6 6 -7 16 -3 22 5 8 11 8 17 2 6 -6 7 -16
3 -22z m70 0 c-5 -8 -11 -8 -17 -2 -6 6 -7 16 -3 22 5 8 11 8 17 2 6 -6 7 -16
3 -22z m70 0 c-5 -8 -11 -8 -17 -2 -6 6 -7 16 -3 22 5 8 11 8 17 2 6 -6 7 -16
3 -22z m-197 -52 c10 -10 17 -10 32 0 16 10 24 10 40 0 15 -9 22 -10 31 -1 8
8 18 9 35 1 17 -8 27 -8 37 0 20 17 26 5 20 -34 -4 -24 -2 -34 8 -34 10 0 10
-3 1 -12 -15 -15 -16 -58 -2 -58 6 0 5 -8 -2 -20 -10 -15 -10 -24 -1 -39 8
-13 8 -22 1 -29 -7 -7 -16 -7 -29 1 -15 9 -24 9 -39 -1 -12 -7 -20 -8 -20 -2
0 14 -43 13 -58 -2 -9 -9 -12 -9 -12 1 0 10 -10 12 -34 8 -39 -6 -51 0 -34 20
8 10 8 20 0 37 -8 17 -7 27 1 35 9 9 8 17 -1 32 -11 16 -11 24 -1 36 10 11 10
19 1 34 -20 31 1 52 26 27z m-353 -138 c11 -17 -5 -32 -21 -19 -7 6 -11 15 -8
20 7 12 21 11 29 -1z m280 1 c7 -12 -12 -24 -25 -16 -11 7 -4 25 10 25 5 0 11
-4 15 -9z m0 -70 c7 -12 -12 -24 -25 -16 -11 7 -4 25 10 25 5 0 11 -4 15 -9z
m478 3 c3 -3 3 -12 0 -20 -4 -11 -9 -12 -19 -3 -8 6 -11 15 -8 20 6 10 18 12
27 3z m72 -3 c7 -12 -12 -24 -25 -16 -11 7 -4 25 10 25 5 0 11 -4 15 -9z"/>
<path d="M1647 593 c-12 -11 -8 -40 7 -52 28 -23 68 17 45 45 -12 15 -41 19
-52 7z"/>
<path d="M541 726 c-9 -11 -10 -20 -1 -36 13 -24 38 -23 53 1 23 37 -25 68
-52 35z"/>
<path d="M883 724 c-15 -39 38 -67 60 -32 8 12 7 21 -2 32 -17 21 -50 20 -58
0z"/>
<path d="M1370 726 c-27 -33 18 -72 48 -42 13 13 14 20 6 34 -15 23 -38 26
-54 8z"/>
<path d="M178 584 c-50 -27 -58 -58 -58 -224 0 -231 9 -240 240 -240 233 0
240 7 240 240 0 233 -7 240 -242 240 -116 -1 -160 -4 -180 -16z m327 -79 c24
-23 25 -30 25 -145 0 -115 -1 -122 -25 -145 -23 -24 -30 -25 -145 -25 -115 0
-122 1 -145 25 -24 23 -25 30 -25 145 0 167 3 170 170 170 115 0 122 -1 145
-25z"/>
<path d="M272 448 c-16 -16 -16 -160 0 -176 7 -7 42 -12 88 -12 46 0 81 5 88
12 16 16 16 160 0 176 -7 7 -42 12 -88 12 -46 0 -81 -5 -88 -12z"/>
<path d="M883 584 c-3 -9 -1 -25 5 -34 9 -14 8 -21 -3 -30 -12 -10 -15 -10
-15 -1 0 21 -54 8 -59 -13 -5 -27 26 -48 51 -35 26 14 40 2 25 -21 -9 -16 -9
-24 0 -40 15 -23 1 -35 -25 -21 -25 13 -56 -8 -51 -35 5 -21 59 -34 59 -13 0
9 3 9 15 -1 11 -9 12 -16 2 -31 -9 -15 -9 -23 0 -39 16 -24 -1 -37 -23 -19
-12 10 -20 10 -35 1 -28 -18 -40 -6 -27 24 10 22 9 28 -6 40 -14 9 -24 10 -38
3 -26 -14 -40 -2 -25 21 9 15 9 25 1 38 -8 12 -8 22 0 35 8 12 8 22 0 35 -8
12 -8 22 -1 33 15 24 1 49 -27 49 -27 0 -45 -35 -27 -53 7 -7 7 -16 0 -29 -6
-11 -6 -24 0 -36 6 -11 6 -24 0 -35 -6 -11 -7 -23 -1 -34 7 -11 6 -23 -1 -34
-16 -26 9 -52 44 -45 33 6 41 -1 26 -25 -16 -26 15 -59 41 -43 12 8 22 8 35 0
12 -8 22 -8 36 1 15 10 22 9 31 -2 7 -9 8 -15 0 -20 -16 -10 -12 -45 6 -52 9
-3 25 -1 35 5 11 7 20 8 24 2 10 -17 44 -11 54 9 7 13 6 24 -4 37 -12 17 -17
17 -36 6 -27 -17 -49 -1 -30 22 9 11 10 20 1 36 -9 16 -9 25 0 35 8 9 8 20 1
32 -11 21 2 53 13 34 20 -31 76 3 58 36 -7 11 -7 24 -1 35 6 11 6 25 0 36 -6
11 -6 24 1 35 6 12 6 22 -2 32 -9 10 -9 19 0 35 20 37 -27 69 -57 39 -8 -8
-13 -8 -17 0 -11 17 -46 13 -53 -5z m81 -43 c3 -5 -1 -14 -8 -20 -16 -13 -32
2 -21 19 8 12 22 13 29 1z m0 -70 c3 -5 0 -14 -8 -20 -10 -9 -15 -8 -19 3 -9
22 15 37 27 17z m-5 -88 c-14 -17 -31 1 -22 24 4 10 9 11 19 2 11 -9 12 -15 3
-26z"/>
<path d="M1094 376 c-10 -26 4 -48 28 -44 17 2 23 10 23 28 0 18 -6 26 -23 28
-13 2 -25 -3 -28 -12z"/>
<path d="M1236 315 c-19 -19 -20 -27 -5 -42 8 -8 8 -17 -1 -33 -9 -16 -9 -25
0 -35 17 -21 3 -37 -20 -25 -24 13 -26 13 -44 -6 -12 -12 -13 -20 -6 -35 11
-20 45 -26 55 -9 4 6 13 5 25 -3 15 -9 25 -9 37 -1 13 8 23 8 35 0 13 -8 23
-8 37 1 14 9 21 9 30 0 9 -9 16 -8 31 1 16 9 24 10 39 0 15 -9 23 -9 34 1 12
10 20 10 36 -1 15 -9 23 -10 32 -1 9 9 16 9 30 0 14 -9 24 -9 37 -1 12 8 22 8
35 0 12 -8 22 -8 34 0 23 15 26 27 9 49 -13 18 -17 18 -37 7 -26 -16 -51 0
-31 20 18 18 15 36 -9 48 -15 8 -24 8 -34 0 -10 -8 -19 -8 -33 1 -36 22 -71
-28 -41 -58 16 -16 -8 -28 -27 -12 -13 10 -20 10 -36 0 -13 -8 -24 -9 -30 -3
-6 6 -6 12 1 16 16 10 13 42 -5 57 -13 10 -20 10 -36 0 -14 -9 -23 -9 -33 -1
-10 8 -19 8 -35 0 -28 -15 -43 -4 -27 20 22 37 -17 74 -47 45z m67 -136 c-17
-17 -37 -1 -22 17 8 10 15 12 23 4 7 -7 7 -13 -1 -21z m70 0 c-17 -17 -37 -1
-22 17 8 10 15 12 23 4 7 -7 7 -13 -1 -21z m207 -3 c-13 -13 -35 7 -25 24 5 8
11 8 21 -1 10 -8 12 -15 4 -23z"/>
<path d="M1445 316 c-12 -9 -15 -19 -10 -35 9 -30 59 -26 63 6 4 29 -28 47
-53 29z"/>
<path d="M1926 314 c-19 -19 -20 -26 -4 -42 18 -18 -6 -40 -25 -23 -8 6 -22 8
-32 5 -13 -5 -16 -15 -12 -40 6 -38 1 -47 -24 -34 -26 14 -49 2 -49 -26 0 -28
25 -42 49 -27 11 7 22 7 34 -1 12 -8 22 -8 37 1 12 8 21 9 25 3 10 -16 45 -11
52 6 3 9 2 24 -4 33 -7 11 -7 22 1 34 8 12 8 22 -1 36 -16 25 2 44 27 29 23
-15 50 -3 50 21 0 27 -30 43 -54 29 -12 -7 -21 -7 -29 1 -15 15 -23 14 -41 -5z
m0 -133 c-4 -5 -13 -8 -22 -4 -11 4 -12 8 -3 20 14 16 36 2 25 -16z"/>
<path d="M1032 248 c-30 -30 1 -73 37 -51 11 7 21 7 32 0 24 -15 49 -1 49 27
0 27 -23 40 -49 27 -10 -6 -23 -6 -32 0 -19 12 -23 11 -37 -3z"/>
<path d="M2059 244 c-17 -21 0 -49 32 -49 27 0 37 28 19 50 -16 19 -34 19 -51
-1z"/>
<path d="M680 176 c-27 -33 18 -72 48 -42 13 13 14 20 6 34 -15 23 -38 26 -54
8z"/>
</g>
</svg>
